<svg width="198" height="48" viewBox="0 0 198 48" fill="none" xmlns="http://www.w3.org/2000/svg">
<path d="M0.975 39.46C1.01833 38.3333 1.38667 37.4017 2.08 36.665C2.81667 35.885 3.68333 35.495 4.68 35.495C5.80667 35.495 6.695 35.9283 7.345 36.795C8.03833 37.6617 8.515 38.615 8.775 39.655C9.07833 40.695 9.59833 41.6483 10.335 42.515C11.115 43.3817 12.1333 43.815 13.39 43.815C14.4733 43.815 15.34 43.49 15.99 42.84C16.6833 42.19 17.0517 41.3667 17.095 40.37C17.095 40.3267 17.095 40.2617 17.095 40.175C17.095 39.0483 16.64 38.0083 15.73 37.055C14.8633 36.0583 13.2167 34.9967 10.79 33.87C8.58 32.8733 6.86833 31.7467 5.655 30.49C4.44167 29.19 3.835 27.565 3.835 25.615C3.835 25.4417 3.835 25.2467 3.835 25.03C4.05167 21.9533 5.525 19.5483 8.255 17.815C10.985 16.0383 14.1483 15.15 17.745 15.15C20.735 15.15 23.14 15.865 24.96 17.295C26.8233 18.725 27.755 20.4583 27.755 22.495C27.755 22.5383 27.755 22.5817 27.755 22.625C27.7117 23.7517 27.3 24.7267 26.52 25.55C25.7833 26.33 24.8733 26.72 23.79 26.72C22.6633 26.72 21.775 26.33 21.125 25.55C20.5183 24.77 20.1067 23.9033 19.89 22.95C19.7167 21.9967 19.305 21.13 18.655 20.35C18.005 19.57 17.0733 19.18 15.86 19.18C14.82 19.18 13.9317 19.505 13.195 20.155C12.5017 20.7617 12.1333 21.6067 12.09 22.69C12.09 22.7333 12.09 22.7983 12.09 22.885C12.09 23.925 12.4367 24.8783 13.13 25.745C13.8233 26.6117 15.2317 27.5433 17.355 28.54C20.865 30.1867 23.14 31.465 24.18 32.375C25.7833 33.805 26.585 35.56 26.585 37.64C26.585 37.7267 26.585 37.7917 26.585 37.835C26.5417 40.6083 25.1333 42.9483 22.36 44.855C19.5867 46.7183 16.25 47.65 12.35 47.65C9.01333 47.65 6.28333 46.8483 4.16 45.245C2.03667 43.6417 0.975 41.7567 0.975 39.59C0.975 39.5467 0.975 39.5033 0.975 39.46ZM30.906 34.26C30.906 29.4067 32.7043 25.0083 36.301 21.065C39.941 17.1217 44.426 15.15 49.756 15.15C52.876 15.15 55.411 15.93 57.361 17.49C59.311 19.0067 60.286 20.935 60.286 23.275C60.286 27.045 58.336 29.97 54.436 32.05C50.5793 34.13 46.376 35.17 41.826 35.17C41.2193 35.17 40.591 35.1483 39.941 35.105C40.331 37.055 41.2626 38.615 42.736 39.785C44.2093 40.955 45.986 41.54 48.066 41.54C51.316 41.54 54.4143 40.3483 57.361 37.965C57.881 37.5317 58.336 37.315 58.726 37.315C58.9426 37.315 59.181 37.4017 59.441 37.575C59.701 37.705 59.831 37.9433 59.831 38.29C59.831 38.5933 59.701 38.9617 59.441 39.395C58.141 41.6483 56.1476 43.5983 53.461 45.245C50.7743 46.8483 47.7626 47.65 44.426 47.65C40.3526 47.65 37.081 46.48 34.611 44.14C32.141 41.7567 30.906 38.4633 30.906 34.26ZM41.046 31.335C41.2626 31.335 41.4576 31.335 41.631 31.335C44.9676 31.335 47.6976 30.6633 49.821 29.32C51.9443 27.9333 53.006 26.07 53.006 23.73C53.006 23.6867 53.006 23.6433 53.006 23.6C52.9626 22.3 52.5293 21.2383 51.706 20.415C50.8826 19.5917 49.756 19.18 48.326 19.18C45.8126 19.18 43.711 20.3717 42.021 22.755C40.331 25.1383 39.486 27.5867 39.486 30.1C39.486 30.9233 40.006 31.335 41.046 31.335ZM65.1879 45.83L68.2429 25.095C68.2862 24.7917 68.3079 24.51 68.3079 24.25C68.3079 23.7733 68.1996 23.3183 67.9829 22.885C67.8096 22.4083 67.5496 22.0833 67.2029 21.91C66.8562 21.7367 66.5312 21.4983 66.2279 21.195C65.9246 20.8917 65.7729 20.5233 65.7729 20.09C65.7729 19.57 66.0762 19.05 66.6829 18.53C67.3329 18.01 68.6546 17.3383 70.6479 16.515C73.0746 15.6483 74.6996 15.215 75.5229 15.215C76.6929 15.215 77.2779 15.7783 77.2779 16.905C77.2779 16.9917 77.2779 17.1 77.2779 17.23L76.4329 23.535C80.0296 17.9883 84.4279 15.215 89.6279 15.215C92.9646 15.215 95.2396 16.1683 96.4529 18.075C97.6662 19.9817 98.2729 22.0617 98.2729 24.315C98.2729 25.3983 98.1646 26.5467 97.9479 27.76L96.1279 38.485C96.0412 38.9617 95.9979 39.395 95.9979 39.785C95.9979 40.9117 96.3879 41.475 97.1679 41.475C97.6012 41.475 98.1212 41.1717 98.7279 40.565C99.3779 39.9583 99.8546 39.655 100.158 39.655C100.808 39.655 101.133 40.0667 101.133 40.89C101.046 42.45 100.201 43.9667 98.5979 45.44C97.0379 46.87 95.0446 47.585 92.6179 47.585C90.6246 47.585 89.1946 47.0217 88.3279 45.895C87.4612 44.725 87.0279 43.4467 87.0279 42.06C87.0279 41.3233 87.1146 40.5433 87.2879 39.72L89.1079 30.23C89.4979 28.1933 89.6929 26.4817 89.6929 25.095C89.6929 24.2283 89.5412 23.275 89.2379 22.235C88.9346 21.195 87.9596 20.675 86.3129 20.675C84.1896 20.675 81.9796 22.3433 79.6829 25.68C77.3862 28.9733 75.7829 33.3717 74.8729 38.875L73.9629 44.465C73.7896 45.4183 73.2262 46.025 72.2729 46.285L66.8129 47.585C66.6396 47.6283 66.4879 47.65 66.3579 47.65C66.0112 47.65 65.7296 47.52 65.5129 47.26C65.2962 47 65.1879 46.6533 65.1879 46.22C65.1879 46.09 65.1879 45.96 65.1879 45.83ZM111.143 20.74C114.783 17.0133 119.116 15.15 124.143 15.15C127.783 15.15 130.665 16.1467 132.788 18.14C134.911 20.09 135.973 22.2783 135.973 24.705C135.973 24.8783 135.973 25.0733 135.973 25.29C135.886 26.98 135.366 28.3233 134.413 29.32C133.503 30.3167 132.441 30.815 131.228 30.815C131.098 30.815 130.946 30.815 130.773 30.815C128.563 30.5983 127.458 29.32 127.458 26.98C127.458 26.8933 127.458 26.8067 127.458 26.72C127.458 26.5033 127.458 26.265 127.458 26.005C127.458 21.5417 125.833 19.31 122.583 19.31C120.286 19.31 118.38 20.5233 116.863 22.95C115.39 25.3333 114.653 28.1067 114.653 31.27C114.653 34.3033 115.476 36.73 117.123 38.55C118.77 40.3267 121.088 41.215 124.078 41.215C127.285 41.215 130.253 40.0883 132.983 37.835C133.46 37.445 133.871 37.25 134.218 37.25C134.435 37.25 134.63 37.3583 134.803 37.575C135.02 37.7483 135.128 37.9867 135.128 38.29C135.128 38.6367 135.02 39.0483 134.803 39.525C133.806 41.605 131.943 43.49 129.213 45.18C126.483 46.8267 123.32 47.65 119.723 47.65C115.346 47.65 111.901 46.3717 109.388 43.815C106.875 41.2583 105.618 38.03 105.618 34.13C105.618 28.93 107.46 24.4667 111.143 20.74ZM140.785 45.83L146.115 10.535C146.159 10.275 146.18 10.015 146.18 9.755C146.18 9.01833 146.007 8.41166 145.66 7.935C145.314 7.45833 144.88 7.06833 144.36 6.765C143.884 6.41833 143.645 5.985 143.645 5.465C143.645 4.33833 145.119 3.23333 148.065 2.15C150.969 1.15333 152.962 0.654996 154.045 0.654996C155.129 0.654996 155.67 1.175 155.67 2.215C155.67 2.345 155.67 2.49666 155.67 2.67L152.485 22.95C155.952 17.7933 160.242 15.215 165.355 15.215C168.692 15.215 170.967 16.1683 172.18 18.075C173.394 19.9817 174 22.0617 174 24.315C174 25.3983 173.892 26.5467 173.675 27.76L171.855 38.485C171.769 38.9617 171.725 39.395 171.725 39.785C171.725 40.9117 172.115 41.475 172.895 41.475C173.329 41.475 173.849 41.1717 174.455 40.565C175.105 39.9583 175.582 39.655 175.885 39.655C176.535 39.655 176.86 40.0667 176.86 40.89C176.774 42.45 175.929 43.9667 174.325 45.44C172.765 46.87 170.772 47.585 168.345 47.585C166.352 47.585 164.922 47.0217 164.055 45.895C163.189 44.725 162.755 43.4467 162.755 42.06C162.755 41.3233 162.842 40.5433 163.015 39.72L164.835 30.23C165.225 28.1933 165.42 26.5033 165.42 25.16C165.42 24.25 165.247 23.275 164.9 22.235C164.597 21.1517 163.579 20.61 161.845 20.61C159.679 20.61 157.49 22.2783 155.28 25.615C153.07 28.9083 151.51 33.3283 150.6 38.875L149.625 44.725C149.452 45.6783 148.867 46.2633 147.87 46.48L142.54 47.715C142.41 47.7583 142.28 47.78 142.15 47.78C141.76 47.78 141.435 47.6283 141.175 47.325C140.915 47.0217 140.785 46.6317 140.785 46.155C140.785 46.0683 140.785 45.96 140.785 45.83ZM183.082 39.85L185.357 25.095C185.4 24.7483 185.422 24.445 185.422 24.185C185.422 23.4917 185.249 22.9283 184.902 22.495C184.555 22.0617 184.122 21.6933 183.602 21.39C183.125 21.0433 182.887 20.61 182.887 20.09C182.887 19.5267 183.169 19.0067 183.732 18.53C184.339 18.01 185.552 17.425 187.372 16.775C190.102 15.735 192.074 15.215 193.287 15.215C194.414 15.215 194.977 15.6917 194.977 16.645C194.977 16.8183 194.955 17.0133 194.912 17.23L191.857 38.55C191.77 38.9833 191.727 39.3733 191.727 39.72C191.727 40.89 192.16 41.475 193.027 41.475C193.46 41.475 193.98 41.1717 194.587 40.565C195.237 39.9583 195.692 39.655 195.952 39.655C196.645 39.655 196.992 40.0667 196.992 40.89C196.905 42.45 196.06 43.9667 194.457 45.44C192.897 46.87 190.882 47.585 188.412 47.585C186.462 47.585 185.054 47.0217 184.187 45.895C183.32 44.725 182.887 43.36 182.887 41.8C182.887 41.1933 182.952 40.5433 183.082 39.85ZM186.137 7.61C186.18 6.09333 186.895 4.685 188.282 3.385C189.712 2.085 191.229 1.435 192.832 1.435C192.875 1.435 192.919 1.435 192.962 1.435C194.132 1.47833 195.107 1.89 195.887 2.67C196.667 3.45 197.057 4.40333 197.057 5.53C197.014 7.09 196.255 8.49833 194.782 9.755C193.352 10.9683 191.835 11.575 190.232 11.575C190.145 11.575 190.08 11.575 190.037 11.575C188.824 11.5317 187.87 11.1417 187.177 10.405C186.484 9.66833 186.137 8.80166 186.137 7.805C186.137 7.71833 186.137 7.65333 186.137 7.61Z" fill="white"/>
</svg>
