<svg width="109" height="21" viewBox="0 0 109 21" fill="none" xmlns="http://www.w3.org/2000/svg">
<path d="M19.8625 11.1931L18.5203 10.4235L19.5235 7.675C19.5531 7.59373 19.541 7.50307 19.4915 7.43224C19.4441 7.35902 19.3632 7.31444 19.2762 7.31309L16.4635 7.23973L16.3032 6.15866V6.15881C16.2891 6.06054 16.2223 5.97778 16.1291 5.94349C16.0365 5.91173 15.9339 5.93081 15.8589 5.99389L12.9959 8.49501L14.1869 2.53996C14.2098 2.43334 14.1642 2.32389 14.0723 2.26515C13.9842 2.20371 13.8673 2.20371 13.7792 2.26515L11.7636 3.56155L10.2428 0.487834V0.487684C10.1974 0.395084 10.1032 0.336182 10 0.336182C9.89681 0.336182 9.80257 0.395084 9.75724 0.487684L8.23641 3.5614L6.22082 2.265V2.26515C6.1327 2.20371 6.01579 2.20371 5.92766 2.26515C5.83581 2.3239 5.79018 2.43334 5.81314 2.53996L7.00411 8.49501L4.14111 5.99389C4.06611 5.93081 3.96352 5.91173 3.87092 5.94349C3.77772 5.97778 3.71092 6.06054 3.69675 6.15881L3.53646 7.23988L0.723843 7.31324V7.31309C0.636762 7.31444 0.555942 7.35902 0.508523 7.43224C0.459016 7.50307 0.446937 7.59373 0.476463 7.675L1.4797 10.4235L0.137522 11.1931C0.0510365 11.243 -0.00160051 11.3359 3.71299e-05 11.4358C0.00346678 11.5357 0.0616225 11.6255 0.151238 11.6695L6.43152 14.7936L5.47867 17.4001C5.4408 17.4981 5.46436 17.6093 5.53876 17.6836C5.61302 17.758 5.72426 17.7815 5.82223 17.7437L9.72965 16.3694V20.6799L9.7298 20.6798C9.7298 20.8291 9.85074 20.9501 10 20.9501C10.1493 20.9501 10.2702 20.8291 10.2702 20.6798V16.3464L14.1776 17.7206H14.1778C14.2079 17.727 14.2392 17.727 14.2693 17.7206C14.3419 17.72 14.4113 17.6903 14.4617 17.6381C14.5353 17.5651 14.5586 17.4555 14.5213 17.3587L13.5685 14.7522L19.8488 11.6694C19.9384 11.6254 19.9965 11.5356 20 11.4357C20.0016 11.3358 19.949 11.2429 19.8625 11.193L19.8625 11.1931ZM13.1104 14.3996C12.9875 14.461 12.9304 14.6049 12.9775 14.7341L13.8203 17.0245L10.2702 15.7601V14.0057L15.0159 10.7991C15.0755 10.7591 15.1168 10.6969 15.1306 10.6266C15.1443 10.556 15.1294 10.483 15.0893 10.4235C15.0493 10.3635 14.9868 10.3225 14.916 10.3095C14.8452 10.2966 14.7721 10.3128 14.7136 10.3547L10.2703 13.3689V6.73594C10.2703 6.58667 10.1493 6.46574 10.0001 6.46574C9.85081 6.46574 9.72987 6.58667 9.72987 6.73594V13.3689L5.28649 10.3593H5.28635C5.22789 10.3174 5.15483 10.3012 5.084 10.314C5.01317 10.327 4.95069 10.3681 4.91072 10.4281C4.87061 10.4876 4.8557 10.5607 4.86942 10.631C4.88314 10.7016 4.92444 10.7636 4.98409 10.8037L9.7298 14.0103V15.7831L6.17968 17.0336L7.02247 14.7432C7.06959 14.6142 7.01248 14.4703 6.88961 14.4087L0.838369 11.413L1.94242 10.7762V10.7761C2.05694 10.7121 2.10764 10.5739 2.06141 10.4509L1.11319 7.83989L3.77459 7.77577H3.77474C3.90567 7.77279 4.01586 7.67631 4.03584 7.54673L4.15498 6.72677L7.25149 9.42024C7.33887 9.49465 7.46383 9.50568 7.56299 9.44783C7.66379 9.39176 7.71584 9.27634 7.69123 9.16376L6.46358 3.03923L8.1997 4.15698C8.26561 4.1971 8.34494 4.20873 8.41965 4.18904C8.49271 4.16608 8.5537 4.11508 8.58904 4.04708L9.99996 1.1887L11.4109 4.04708C11.4462 4.11508 11.5072 4.16608 11.5803 4.18904C11.655 4.20873 11.7343 4.1971 11.8002 4.15698L13.5364 3.03923L12.3133 9.16376C12.2886 9.27634 12.3408 9.39176 12.4416 9.44783C12.5407 9.50568 12.6655 9.49465 12.7531 9.42024L15.8451 6.72677L15.955 7.54211C15.9729 7.67348 16.0835 7.77249 16.2161 7.77577L18.8775 7.83989L17.9293 10.4509C17.8832 10.5739 17.9337 10.7121 18.0484 10.7761L19.1616 11.413L13.1104 14.3996Z" fill="#BA5B32"/>
<path d="M31.5918 11.021V10.0054H33.4277C33.7467 10.0054 34.0023 9.95492 34.1943 9.854C34.3896 9.75309 34.5329 9.61312 34.624 9.43408C34.7152 9.25505 34.7607 9.04997 34.7607 8.81885C34.7607 8.59749 34.7152 8.39079 34.624 8.19873C34.5329 8.00667 34.3896 7.85042 34.1943 7.72998C34.0023 7.60954 33.7467 7.54932 33.4277 7.54932H31.9727V13.6431H30.7129V6.53369H33.4277C33.9811 6.53369 34.4515 6.63135 34.8389 6.82666C35.2262 7.02197 35.5208 7.29053 35.7227 7.63232C35.9277 7.97412 36.0303 8.36637 36.0303 8.80908C36.0303 9.26807 35.9277 9.66357 35.7227 9.99561C35.5208 10.3244 35.2262 10.5783 34.8389 10.7573C34.4515 10.9331 33.9811 11.021 33.4277 11.021H31.5918ZM38.208 13.6431H36.9971V8.35986H38.1494L38.208 9.39502V13.6431ZM39.7998 9.47314C39.7249 9.46012 39.6452 9.45036 39.5605 9.44385C39.4792 9.43734 39.3978 9.43408 39.3164 9.43408C39.0495 9.43408 38.8265 9.48291 38.6475 9.58057C38.4717 9.67497 38.3382 9.81169 38.2471 9.99072C38.1559 10.1665 38.1022 10.3748 38.0859 10.6157L37.8076 10.6206C37.8076 10.1746 37.8662 9.77425 37.9834 9.41943C38.1006 9.06462 38.2764 8.78304 38.5107 8.57471C38.7451 8.36637 39.0381 8.26221 39.3896 8.26221C39.458 8.26221 39.5345 8.26872 39.6191 8.28174C39.7038 8.29476 39.7673 8.30941 39.8096 8.32568L39.7998 9.47314ZM40.21 10.9526C40.21 10.4383 40.3076 9.97933 40.5029 9.57568C40.6982 9.17204 40.9782 8.85303 41.3428 8.61865C41.7106 8.38102 42.1517 8.26221 42.666 8.26221C43.1868 8.26221 43.6312 8.38102 43.999 8.61865C44.3669 8.85303 44.6468 9.17204 44.8389 9.57568C45.0342 9.97933 45.1318 10.4383 45.1318 10.9526V11.0552C45.1318 11.5662 45.0342 12.0252 44.8389 12.4321C44.6468 12.8358 44.3669 13.1548 43.999 13.3892C43.6344 13.6235 43.1934 13.7407 42.6758 13.7407C42.1582 13.7407 41.7155 13.6235 41.3477 13.3892C40.9798 13.1548 40.6982 12.8358 40.5029 12.4321C40.3076 12.0252 40.21 11.5662 40.21 11.0552V10.9526ZM41.4209 11.0552C41.4209 11.3677 41.4648 11.6541 41.5527 11.9146C41.6406 12.1717 41.7757 12.3784 41.958 12.5347C42.1436 12.6909 42.3828 12.769 42.6758 12.769C42.9655 12.769 43.2015 12.6909 43.3838 12.5347C43.5693 12.3784 43.7044 12.1717 43.7891 11.9146C43.877 11.6541 43.9209 11.3677 43.9209 11.0552V10.9526C43.9209 10.6434 43.877 10.3586 43.7891 10.0981C43.7044 9.83773 43.5693 9.62939 43.3838 9.47314C43.1982 9.31364 42.959 9.23389 42.666 9.23389C42.3763 9.23389 42.1387 9.31364 41.9531 9.47314C41.7708 9.62939 41.6357 9.83773 41.5479 10.0981C41.4632 10.3586 41.4209 10.6434 41.4209 10.9526V11.0552ZM49.2822 8.35986H50.4932V13.6431H49.3506L49.2822 12.3931V8.35986ZM49.8535 11.2798C49.8535 11.755 49.7835 12.1782 49.6436 12.5493C49.5036 12.9172 49.2855 13.2085 48.9893 13.4233C48.693 13.6349 48.3089 13.7407 47.8369 13.7407C47.3161 13.7407 46.8945 13.5877 46.5723 13.2817C46.25 12.9757 46.0889 12.4728 46.0889 11.7729V8.35986H47.2998V11.7827C47.2998 12.0269 47.3372 12.2205 47.4121 12.3638C47.4902 12.5037 47.5928 12.603 47.7197 12.6616C47.8467 12.7202 47.9867 12.7495 48.1396 12.7495C48.4684 12.7495 48.7272 12.686 48.916 12.5591C49.1081 12.4289 49.2448 12.2531 49.3262 12.0317C49.4076 11.8104 49.4482 11.563 49.4482 11.2896L49.8535 11.2798ZM54.8926 6.14307H56.1035V13.6431H55.0049L54.8926 12.5347V6.14307ZM51.4648 10.9575C51.4648 10.4237 51.5479 9.95492 51.7139 9.55127C51.8831 9.14437 52.1224 8.82861 52.4316 8.604C52.7409 8.37614 53.112 8.26221 53.5449 8.26221C53.9714 8.26221 54.3278 8.37288 54.6143 8.59424C54.9007 8.81559 55.1253 9.12321 55.2881 9.51709C55.4541 9.90771 55.5648 10.3618 55.6201 10.8794V11.1626C55.5648 11.6639 55.4557 12.1082 55.293 12.4956C55.1302 12.883 54.904 13.1873 54.6143 13.4087C54.3278 13.63 53.9681 13.7407 53.5352 13.7407C53.1087 13.7407 52.7409 13.6252 52.4316 13.394C52.1224 13.1597 51.8831 12.8407 51.7139 12.437C51.5479 12.0334 51.4648 11.5744 51.4648 11.0601V10.9575ZM52.6758 11.0601C52.6758 11.3726 52.7148 11.6574 52.793 11.9146C52.8711 12.1685 52.9948 12.3719 53.1641 12.5249C53.3366 12.6746 53.5628 12.7495 53.8428 12.7495C54.1064 12.7495 54.3229 12.6925 54.4922 12.5786C54.6647 12.4614 54.7982 12.3035 54.8926 12.105C54.9902 11.9064 55.057 11.6834 55.0928 11.436V10.6108C55.07 10.4155 55.0293 10.2349 54.9707 10.0688C54.9121 9.90283 54.8324 9.7596 54.7314 9.63916C54.6338 9.51872 54.5117 9.42432 54.3652 9.35596C54.2188 9.2876 54.0479 9.25342 53.8525 9.25342C53.5726 9.25342 53.3447 9.32992 53.1689 9.48291C52.9964 9.63265 52.8711 9.83773 52.793 10.0981C52.7148 10.3553 52.6758 10.6418 52.6758 10.9575V11.0601ZM58.6182 13.6431H57.4072V6.14307H58.6182V13.6431ZM62.8467 8.35986H64.1406L62.0264 14.4438C61.9775 14.5773 61.9141 14.7205 61.8359 14.8735C61.7578 15.0265 61.6553 15.1714 61.5283 15.3081C61.4046 15.4448 61.2484 15.5571 61.0596 15.645C60.874 15.7329 60.6494 15.7769 60.3857 15.7769C60.3141 15.7769 60.2441 15.772 60.1758 15.7622C60.1107 15.7557 60.0472 15.7459 59.9854 15.7329C59.9235 15.7199 59.8633 15.7052 59.8047 15.689V14.7563C59.8372 14.7596 59.8763 14.7629 59.9219 14.7661C59.9674 14.7694 60.0049 14.771 60.0342 14.771C60.3239 14.771 60.5436 14.7189 60.6934 14.6147C60.8431 14.5106 60.9587 14.3332 61.04 14.0825L61.4258 13.062L62.8467 8.35986ZM61.8848 12.271L62.0996 13.5796L61.2598 13.77L59.3506 8.35986H60.6592L61.8848 12.271ZM72.8467 11.3188C72.8076 11.7843 72.6758 12.201 72.4512 12.5688C72.2298 12.9334 71.9189 13.2199 71.5186 13.4282C71.1182 13.6366 70.6283 13.7407 70.0488 13.7407C69.4629 13.7407 68.9535 13.604 68.5205 13.3306C68.0908 13.0539 67.7588 12.6632 67.5244 12.1587C67.2933 11.6541 67.1777 11.0584 67.1777 10.3716V9.81006C67.1777 9.11995 67.2965 8.52425 67.5342 8.02295C67.7718 7.51839 68.1087 7.12777 68.5449 6.85107C68.9844 6.57438 69.502 6.43604 70.0977 6.43604C70.6673 6.43604 71.1475 6.54183 71.5381 6.75342C71.932 6.96175 72.2363 7.25146 72.4512 7.62256C72.6693 7.9904 72.8011 8.41357 72.8467 8.89209H71.5918C71.543 8.43962 71.4079 8.08805 71.1865 7.8374C70.9684 7.58675 70.6055 7.46143 70.0977 7.46143C69.7298 7.46143 69.4238 7.55257 69.1797 7.73486C68.9388 7.9139 68.7565 8.17757 68.6328 8.52588C68.5091 8.87093 68.4473 9.29574 68.4473 9.80029V10.3716C68.4473 10.8534 68.5026 11.27 68.6133 11.6216C68.724 11.9699 68.8965 12.2401 69.1309 12.4321C69.3652 12.6209 69.6712 12.7153 70.0488 12.7153C70.3939 12.7153 70.6722 12.6616 70.8838 12.5542C71.0986 12.4468 71.2614 12.2905 71.3721 12.0854C71.4827 11.8771 71.5544 11.6216 71.5869 11.3188H72.8467ZM76.7871 10.0737C76.7871 9.80029 76.7106 9.58219 76.5576 9.41943C76.4079 9.25667 76.18 9.17529 75.874 9.17529C75.6917 9.17529 75.5322 9.20785 75.3955 9.27295C75.2588 9.3348 75.153 9.41943 75.0781 9.52686C75.0033 9.63428 74.9658 9.75635 74.9658 9.89307H73.7549C73.7549 9.60986 73.8444 9.34456 74.0234 9.09717C74.2025 8.84652 74.4548 8.64469 74.7803 8.4917C75.109 8.3387 75.4964 8.26221 75.9424 8.26221C76.3395 8.26221 76.6927 8.32894 77.002 8.4624C77.3112 8.59587 77.5537 8.79769 77.7295 9.06787C77.9085 9.33805 77.998 9.6766 77.998 10.0835V12.4126C77.998 12.66 78.016 12.8781 78.0518 13.0669C78.0876 13.2557 78.138 13.4201 78.2031 13.5601V13.6431H76.9629C76.9076 13.5161 76.8636 13.3517 76.8311 13.1499C76.8018 12.9481 76.7871 12.7511 76.7871 12.5591V10.0737ZM76.9727 11.1724H76.1426C75.7129 11.1724 75.389 11.2521 75.1709 11.4116C74.9561 11.5679 74.8486 11.7811 74.8486 12.0513C74.8486 12.2596 74.9202 12.4338 75.0635 12.5737C75.2067 12.7104 75.4085 12.7788 75.6689 12.7788C75.9066 12.7788 76.1133 12.7316 76.2891 12.6372C76.4681 12.5396 76.6081 12.4207 76.709 12.2808C76.8099 12.1375 76.862 12.0041 76.8652 11.8804L77.251 12.4224C77.2119 12.5558 77.1452 12.6991 77.0508 12.8521C76.9596 13.0018 76.8376 13.145 76.6846 13.2817C76.5348 13.4152 76.3558 13.5259 76.1475 13.6138C75.9424 13.6984 75.7031 13.7407 75.4297 13.7407C75.0846 13.7407 74.777 13.6724 74.5068 13.5356C74.2367 13.3989 74.0234 13.2118 73.8672 12.9741C73.7142 12.7332 73.6377 12.4631 73.6377 12.1636C73.6377 11.6037 73.8477 11.174 74.2676 10.8745C74.6875 10.575 75.2832 10.4253 76.0547 10.4253H76.9629L76.9727 11.1724ZM80.4199 13.6431H79.209V8.35986H80.3467L80.4199 9.48779V13.6431ZM79.8145 10.8159C79.8177 10.3049 79.9072 9.85889 80.083 9.47803C80.2588 9.09391 80.5046 8.79606 80.8203 8.58447C81.1361 8.36963 81.5039 8.26221 81.9238 8.26221C82.2656 8.26221 82.5618 8.32731 82.8125 8.45752C83.0632 8.58447 83.2585 8.79281 83.3984 9.08252C83.5384 9.36898 83.6084 9.75472 83.6084 10.2397V13.6431H82.3926V10.23C82.3926 9.98584 82.3568 9.79215 82.2852 9.64893C82.2168 9.5057 82.1126 9.40479 81.9727 9.34619C81.8359 9.28434 81.6683 9.25342 81.4697 9.25342C81.2679 9.25342 81.0889 9.29411 80.9326 9.37549C80.7796 9.45361 80.6478 9.56429 80.5371 9.70752C80.4297 9.85075 80.3467 10.0168 80.2881 10.2056C80.2327 10.3944 80.2051 10.5962 80.2051 10.811L79.8145 10.8159ZM87.7637 10.0737C87.7637 9.80029 87.6872 9.58219 87.5342 9.41943C87.3844 9.25667 87.1566 9.17529 86.8506 9.17529C86.6683 9.17529 86.5088 9.20785 86.3721 9.27295C86.2354 9.3348 86.1296 9.41943 86.0547 9.52686C85.9798 9.63428 85.9424 9.75635 85.9424 9.89307H84.7314C84.7314 9.60986 84.821 9.34456 85 9.09717C85.179 8.84652 85.4313 8.64469 85.7568 8.4917C86.0856 8.3387 86.473 8.26221 86.9189 8.26221C87.3161 8.26221 87.6693 8.32894 87.9785 8.4624C88.2878 8.59587 88.5303 8.79769 88.7061 9.06787C88.8851 9.33805 88.9746 9.6766 88.9746 10.0835V12.4126C88.9746 12.66 88.9925 12.8781 89.0283 13.0669C89.0641 13.2557 89.1146 13.4201 89.1797 13.5601V13.6431H87.9395C87.8841 13.5161 87.8402 13.3517 87.8076 13.1499C87.7783 12.9481 87.7637 12.7511 87.7637 12.5591V10.0737ZM87.9492 11.1724H87.1191C86.6895 11.1724 86.3656 11.2521 86.1475 11.4116C85.9326 11.5679 85.8252 11.7811 85.8252 12.0513C85.8252 12.2596 85.8968 12.4338 86.04 12.5737C86.1833 12.7104 86.3851 12.7788 86.6455 12.7788C86.8831 12.7788 87.0898 12.7316 87.2656 12.6372C87.4447 12.5396 87.5846 12.4207 87.6855 12.2808C87.7865 12.1375 87.8385 12.0041 87.8418 11.8804L88.2275 12.4224C88.1885 12.5558 88.1217 12.6991 88.0273 12.8521C87.9362 13.0018 87.8141 13.145 87.6611 13.2817C87.5114 13.4152 87.3324 13.5259 87.124 13.6138C86.9189 13.6984 86.6797 13.7407 86.4062 13.7407C86.0612 13.7407 85.7536 13.6724 85.4834 13.5356C85.2132 13.3989 85 13.2118 84.8438 12.9741C84.6908 12.7332 84.6143 12.4631 84.6143 12.1636C84.6143 11.6037 84.8242 11.174 85.2441 10.8745C85.6641 10.575 86.2598 10.4253 87.0312 10.4253H87.9395L87.9492 11.1724ZM93.4082 6.14307H94.6191V13.6431H93.5205L93.4082 12.5347V6.14307ZM89.9805 10.9575C89.9805 10.4237 90.0635 9.95492 90.2295 9.55127C90.3988 9.14437 90.638 8.82861 90.9473 8.604C91.2565 8.37614 91.6276 8.26221 92.0605 8.26221C92.487 8.26221 92.8434 8.37288 93.1299 8.59424C93.4163 8.81559 93.641 9.12321 93.8037 9.51709C93.9697 9.90771 94.0804 10.3618 94.1357 10.8794V11.1626C94.0804 11.6639 93.9714 12.1082 93.8086 12.4956C93.6458 12.883 93.4196 13.1873 93.1299 13.4087C92.8434 13.63 92.4837 13.7407 92.0508 13.7407C91.6243 13.7407 91.2565 13.6252 90.9473 13.394C90.638 13.1597 90.3988 12.8407 90.2295 12.437C90.0635 12.0334 89.9805 11.5744 89.9805 11.0601V10.9575ZM91.1914 11.0601C91.1914 11.3726 91.2305 11.6574 91.3086 11.9146C91.3867 12.1685 91.5104 12.3719 91.6797 12.5249C91.8522 12.6746 92.0785 12.7495 92.3584 12.7495C92.6221 12.7495 92.8385 12.6925 93.0078 12.5786C93.1803 12.4614 93.3138 12.3035 93.4082 12.105C93.5059 11.9064 93.5726 11.6834 93.6084 11.436V10.6108C93.5856 10.4155 93.5449 10.2349 93.4863 10.0688C93.4277 9.90283 93.348 9.7596 93.2471 9.63916C93.1494 9.51872 93.0273 9.42432 92.8809 9.35596C92.7344 9.2876 92.5635 9.25342 92.3682 9.25342C92.0882 9.25342 91.8604 9.32992 91.6846 9.48291C91.512 9.63265 91.3867 9.83773 91.3086 10.0981C91.2305 10.3553 91.1914 10.6418 91.1914 10.9575V11.0601ZM97.1338 13.6431H95.9229V8.35986H97.1338V13.6431ZM95.8447 6.97803C95.8447 6.79248 95.9049 6.63949 96.0254 6.51904C96.1458 6.39535 96.3135 6.3335 96.5283 6.3335C96.7432 6.3335 96.9124 6.39535 97.0361 6.51904C97.1598 6.63949 97.2217 6.79248 97.2217 6.97803C97.2217 7.16032 97.1598 7.31331 97.0361 7.43701C96.9124 7.55745 96.7432 7.61768 96.5283 7.61768C96.3135 7.61768 96.1458 7.55745 96.0254 7.43701C95.9049 7.31331 95.8447 7.16032 95.8447 6.97803ZM101.377 10.0737C101.377 9.80029 101.3 9.58219 101.147 9.41943C100.998 9.25667 100.77 9.17529 100.464 9.17529C100.282 9.17529 100.122 9.20785 99.9854 9.27295C99.8486 9.3348 99.7428 9.41943 99.668 9.52686C99.5931 9.63428 99.5557 9.75635 99.5557 9.89307H98.3447C98.3447 9.60986 98.4342 9.34456 98.6133 9.09717C98.7923 8.84652 99.0446 8.64469 99.3701 8.4917C99.6989 8.3387 100.086 8.26221 100.532 8.26221C100.929 8.26221 101.283 8.32894 101.592 8.4624C101.901 8.59587 102.144 8.79769 102.319 9.06787C102.498 9.33805 102.588 9.6766 102.588 10.0835V12.4126C102.588 12.66 102.606 12.8781 102.642 13.0669C102.677 13.2557 102.728 13.4201 102.793 13.5601V13.6431H101.553C101.497 13.5161 101.453 13.3517 101.421 13.1499C101.392 12.9481 101.377 12.7511 101.377 12.5591V10.0737ZM101.562 11.1724H100.732C100.303 11.1724 99.9788 11.2521 99.7607 11.4116C99.5459 11.5679 99.4385 11.7811 99.4385 12.0513C99.4385 12.2596 99.5101 12.4338 99.6533 12.5737C99.7965 12.7104 99.9984 12.7788 100.259 12.7788C100.496 12.7788 100.703 12.7316 100.879 12.6372C101.058 12.5396 101.198 12.4207 101.299 12.2808C101.4 12.1375 101.452 12.0041 101.455 11.8804L101.841 12.4224C101.802 12.5558 101.735 12.6991 101.641 12.8521C101.549 13.0018 101.427 13.145 101.274 13.2817C101.125 13.4152 100.946 13.5259 100.737 13.6138C100.532 13.6984 100.293 13.7407 100.02 13.7407C99.6745 13.7407 99.3669 13.6724 99.0967 13.5356C98.8265 13.3989 98.6133 13.2118 98.457 12.9741C98.304 12.7332 98.2275 12.4631 98.2275 12.1636C98.2275 11.6037 98.4375 11.174 98.8574 10.8745C99.2773 10.575 99.873 10.4253 100.645 10.4253H101.553L101.562 11.1724ZM105.01 13.6431H103.799V8.35986H104.937L105.01 9.48779V13.6431ZM104.404 10.8159C104.408 10.3049 104.497 9.85889 104.673 9.47803C104.849 9.09391 105.094 8.79606 105.41 8.58447C105.726 8.36963 106.094 8.26221 106.514 8.26221C106.855 8.26221 107.152 8.32731 107.402 8.45752C107.653 8.58447 107.848 8.79281 107.988 9.08252C108.128 9.36898 108.198 9.75472 108.198 10.2397V13.6431H106.982V10.23C106.982 9.98584 106.947 9.79215 106.875 9.64893C106.807 9.5057 106.702 9.40479 106.562 9.34619C106.426 9.28434 106.258 9.25342 106.06 9.25342C105.858 9.25342 105.679 9.29411 105.522 9.37549C105.369 9.45361 105.238 9.56429 105.127 9.70752C105.02 9.85075 104.937 10.0168 104.878 10.2056C104.823 10.3944 104.795 10.5962 104.795 10.811L104.404 10.8159Z" fill="#BA5B32"/>
</svg>
